HIERARCHY
ROOT Hips
{
  OFFSET -3.035 28.252 -237.528
  CHANNELS 6 Xposition Yposition Zposition Zrotation Xrotation Yrotation
  JOINT LeftUpLeg
  {
    OFFSET 7.813 -7.565 2.828
    CHANNELS 6 Xposition Yposition Zposition Zrotation Xrotation Yrotation
    JOINT LeftLeg
    {
      OFFSET -0.000 -49.742 0.000
      CHANNELS 6 Xposition Yposition Zposition Zrotation Xrotation Yrotation
      JOINT LeftFoot
      {
        OFFSET 0.000 -44.001 -0.000
        CHANNELS 6 Xposition Yposition Zposition Zrotation Xrotation Yrotation
        End Site
        {
          OFFSET 0.000 -7.528 4.346
        }
      }
    }
  }
  JOINT RightUpLeg
  {
    OFFSET -7.998 -7.327 2.493
    CHANNELS 6 Xposition Yposition Zposition Zrotation Xrotation Yrotation
    JOINT RightLeg
    {
      OFFSET 0.000 -49.510 0.000
      CHANNELS 6 Xposition Yposition Zposition Zrotation Xrotation Yrotation
      JOINT RightFoot
      {
        OFFSET 0.000 -41.890 -0.000
        CHANNELS 6 Xposition Yposition Zposition Zrotation Xrotation Yrotation
        End Site
        {
          OFFSET 0.000 -7.896 4.559
        }
      }
    }
  }
  JOINT Spine
  {
    OFFSET 0.000 5.751 -5.751
    CHANNELS 6 Xposition Yposition Zposition Zrotation Xrotation Yrotation
    JOINT LeftShoulder
    {
      OFFSET -0.000 38.269 0.000
      CHANNELS 6 Xposition Yposition Zposition Zrotation Xrotation Yrotation
      JOINT LeftArm
      {
        OFFSET 21.980 0.000 -0.000
        CHANNELS 6 Xposition Yposition Zposition Zrotation Xrotation Yrotation
        JOINT LeftForeArm
        {
          OFFSET 26.450 -0.000 0.000
          CHANNELS 6 Xposition Yposition Zposition Zrotation Xrotation Yrotation
          JOINT LeftHand
          {
            OFFSET 24.490 0.000 -0.000
            CHANNELS 6 Xposition Yposition Zposition Zrotation Xrotation Yrotation
            JOINT LeftHandThumb1
            {
            OFFSET 4.970 -0.620 3.390
            CHANNELS 6 Xposition Yposition Zposition Zrotation Xrotation Yrotation
              JOINT LeftHandThumb2
              {
              OFFSET 2.150 -0.000 0.000
              CHANNELS 6 Xposition Yposition Zposition Zrotation Xrotation Yrotation
                JOINT LeftHandThumb3
                {
                OFFSET 2.200 -0.000 0.000
                CHANNELS 6 Xposition Yposition Zposition Zrotation Xrotation Yrotation
                  JOINT LeftHandThumb4
                  {
                  OFFSET 1.700 -0.000 0.000
                  CHANNELS 6 Xposition Yposition Zposition Zrotation Xrotation Yrotation
                  }
                }
              }
            }
            JOINT LeftHandIndex1
            {
            OFFSET 8.730 0.680 2.070
            CHANNELS 6 Xposition Yposition Zposition Zrotation Xrotation Yrotation
              JOINT LeftHandIndex2
              {
              OFFSET 2.670 -0.000 0.000
              CHANNELS 6 Xposition Yposition Zposition Zrotation Xrotation Yrotation
                JOINT LeftHandIndex3
                {
                OFFSET 2.130 -0.000 0.000
                CHANNELS 6 Xposition Yposition Zposition Zrotation Xrotation Yrotation
                  JOINT LeftHandIndex4
                  {
                  OFFSET 1.800 -0.000 0.000
                  CHANNELS 6 Xposition Yposition Zposition Zrotation Xrotation Yrotation
                  }
                }
              }
            }
            JOINT LeftHandMiddle1
            {
            OFFSET 9.220 0.670 0.550
            CHANNELS 6 Xposition Yposition Zposition Zrotation Xrotation Yrotation
              JOINT LeftHandMiddle2
              {
              OFFSET 2.660 -0.000 0.000
              CHANNELS 6 Xposition Yposition Zposition Zrotation Xrotation Yrotation
                JOINT LeftHandMiddle3
                {
                OFFSET 2.280 -0.000 0.000
                CHANNELS 6 Xposition Yposition Zposition Zrotation Xrotation Yrotation
                  JOINT LeftHandMiddle4
                  {
                  OFFSET 1.500 -0.000 0.000
                  CHANNELS 6 Xposition Yposition Zposition Zrotation Xrotation Yrotation
                  }
                }
              }
            }
            JOINT LeftHandRing1
            {
            OFFSET 9.250 0.670 -1.130
            CHANNELS 6 Xposition Yposition Zposition Zrotation Xrotation Yrotation
              JOINT LeftHandRing2
              {
              OFFSET 2.470 -0.000 0.000
              CHANNELS 6 Xposition Yposition Zposition Zrotation Xrotation Yrotation
                JOINT LeftHandRing3
                {
                OFFSET 2.210 -0.000 0.000
                CHANNELS 6 Xposition Yposition Zposition Zrotation Xrotation Yrotation
                  JOINT LeftHandRing4
                  {
                  OFFSET 1.800 -0.000 0.000
                  CHANNELS 6 Xposition Yposition Zposition Zrotation Xrotation Yrotation
                  }
                }
              }
            }
            JOINT LeftHandPinky1
            {
            OFFSET 9.350 0.660 -2.720
            CHANNELS 6 Xposition Yposition Zposition Zrotation Xrotation Yrotation
              JOINT LeftHandPinky2
              {
              OFFSET 1.630 -0.000 0.000
              CHANNELS 6 Xposition Yposition Zposition Zrotation Xrotation Yrotation
                JOINT LeftHandPinky3
                {
                OFFSET 1.710 -0.000 0.000
                CHANNELS 6 Xposition Yposition Zposition Zrotation Xrotation Yrotation
                  JOINT LeftHandPinky4
                  {
                  OFFSET 1.800 -0.000 0.000
                  CHANNELS 6 Xposition Yposition Zposition Zrotation Xrotation Yrotation
                  }
                }
              }
            }
          }
        }
      }
    }
    JOINT RightShoulder
    {
      OFFSET -0.000 38.269 0.000
      CHANNELS 6 Xposition Yposition Zposition Zrotation Xrotation Yrotation
      JOINT RightArm
      {
        OFFSET -21.503 0.000 -0.000
        CHANNELS 6 Xposition Yposition Zposition Zrotation Xrotation Yrotation
        JOINT RightForeArm
        {
          OFFSET -25.294 0.000 0.000
          CHANNELS 6 Xposition Yposition Zposition Zrotation Xrotation Yrotation
          JOINT RightHand
          {
            OFFSET -25.843 0.000 -0.000
            CHANNELS 6 Xposition Yposition Zposition Zrotation Xrotation Yrotation
            JOINT RightHandThumb1
            {
            OFFSET -4.970 -0.620 3.390
            CHANNELS 6 Xposition Yposition Zposition Zrotation Xrotation Yrotation
              JOINT RightHandThumb2
              {
              OFFSET -2.150 0.000 0.000
              CHANNELS 6 Xposition Yposition Zposition Zrotation Xrotation Yrotation
                JOINT RightHandThumb3
                {
                OFFSET -2.200 0.000 0.000
                CHANNELS 6 Xposition Yposition Zposition Zrotation Xrotation Yrotation
                  JOINT RightHandThumb4
                  {
                  OFFSET -1.700 0.000 0.000
                  CHANNELS 6 Xposition Yposition Zposition Zrotation Xrotation Yrotation
                  }
                }
              }
            }
            JOINT RightHandIndex1
            {
            OFFSET -8.730 0.680 2.070
            CHANNELS 6 Xposition Yposition Zposition Zrotation Xrotation Yrotation
              JOINT RightHandIndex2
              {
              OFFSET -2.670 0.000 0.000
              CHANNELS 6 Xposition Yposition Zposition Zrotation Xrotation Yrotation
                JOINT RightHandIndex3
                {
                OFFSET -2.130 0.000 0.000
                CHANNELS 6 Xposition Yposition Zposition Zrotation Xrotation Yrotation
                  JOINT RightHandIndex4
                  {
                  OFFSET -1.800 0.000 0.000
                  CHANNELS 6 Xposition Yposition Zposition Zrotation Xrotation Yrotation
                  }
                }
              }
            }
            JOINT RightHandMiddle1
            {
            OFFSET -9.220 0.670 0.550
            CHANNELS 6 Xposition Yposition Zposition Zrotation Xrotation Yrotation
              JOINT RightHandMiddle2
              {
              OFFSET -2.660 0.000 0.000
              CHANNELS 6 Xposition Yposition Zposition Zrotation Xrotation Yrotation
                JOINT RightHandMiddle3
                {
                OFFSET -2.280 0.000 0.000
                CHANNELS 6 Xposition Yposition Zposition Zrotation Xrotation Yrotation
                  JOINT RightHandMiddle4
                  {
                  OFFSET -1.500 0.000 0.000
                  CHANNELS 6 Xposition Yposition Zposition Zrotation Xrotation Yrotation
                  }
                }
              }
            }
            JOINT RightHandRing1
            {
            OFFSET -9.250 0.670 -1.130
            CHANNELS 6 Xposition Yposition Zposition Zrotation Xrotation Yrotation
              JOINT RightHandRing2
              {
              OFFSET -2.470 0.000 0.000
              CHANNELS 6 Xposition Yposition Zposition Zrotation Xrotation Yrotation
                JOINT RightHandRing3
                {
                OFFSET -2.210 0.000 0.000
                CHANNELS 6 Xposition Yposition Zposition Zrotation Xrotation Yrotation
                  JOINT RightHandRing4
                  {
                  OFFSET -1.800 0.000 0.000
                  CHANNELS 6 Xposition Yposition Zposition Zrotation Xrotation Yrotation
                  }
                }
              }
            }
            JOINT RightHandPinky1
            {
            OFFSET -9.350 0.660 -2.720
            CHANNELS 6 Xposition Yposition Zposition Zrotation Xrotation Yrotation
              JOINT RightHandPinky2
              {
              OFFSET -1.630 0.000 0.000
              CHANNELS 6 Xposition Yposition Zposition Zrotation Xrotation Yrotation
                JOINT RightHandPinky3
                {
                OFFSET -1.710 0.000 0.000
                CHANNELS 6 Xposition Yposition Zposition Zrotation Xrotation Yrotation
                  JOINT RightHandPinky4
                  {
                  OFFSET -1.800 0.000 0.000
                  CHANNELS 6 Xposition Yposition Zposition Zrotation Xrotation Yrotation
                  }
                }
              }
            }
          }
        }
      }
    }
    JOINT Neck
    {
      OFFSET -0.000 38.269 0.000
      CHANNELS 6 Xposition Yposition Zposition Zrotation Xrotation Yrotation
      JOINT Head
      {
        OFFSET -0.000 16.924 -0.000
        CHANNELS 6 Xposition Yposition Zposition Zrotation Xrotation Yrotation
        End Site
        {
          OFFSET -0.000 0.068 -0.000
        }
      }
    }
  }
}
MOTION
Frames:	4
Frame Time:	0.0333333
20.8992 29.4591 -196.007 6.73215 3.30968 9.45721 8.26039 -7.80529 2.38959 -0.953952 0.196731 -4.53654 0 -50.0292 0 0.621476 26.8448 -9.56895e-07 1.19209e-05 -46.5964 -3.57628e-05 3.82998 -25.5443 3.71517 -8.51823 -7.9434 0.935483 -8.14629 -8.90498 -6.416 0 -46.0154 3.57628e-05 8.2889 13.0277 2.62899e-06 1.49012e-06 -40.3831 2.38419e-05 1.78272 2.86265 1.02672 -5.96046e-06 6.1159 -6.1159 -0.737895 -2.13544 0.024722 -1.78814e-05 38.2689 0 -28.2589 1.19528e-05 -3.6357 21.9568 5.96046e-06 2.38419e-05 19.7002 -43.3892 -11.6843 21.7478 0 -3.57628e-05 -1.80988e-06 -1.70755e-06 -26.5993 21.9384 1.19209e-05 -1.19209e-05 -24.8573 0.425902 3.18458 0.0062 0.0497 0.0339 -45 0 0 0 0.0215 0 0 -45 0 0 0.022 0 0 -45 0 0 0.017 0 0 0 0 -0.0068 0.0873 0.0207 -45 0 0 0 0.0267 0 -80 0 0 0 0.0213 0 -90 0 0 0 0.018 0 0 0 0 -0.0067 0.0922 0.0055 -45 0 0 0 0.0266 0 -80 0 0 0 0.0228 0 -90 0 0 0 0.015 0 0 0 0 -0.0067 0.0925 -0.0113 -45 0 0 0 0.0247 0 -80 0 0 0 0.0221 0 -90 0 0 0 0.018 0 0 0 0 -0.0066 0.0935 -0.0272 -45 0 0 0 0.0163 0 -80 0 0 0 0.0171 0 -90 0 0 0 0.018 0 0 0 0 -1.78814e-05 38.2689 0 31.5587 -2.56132e-06 3.8291 -20.8493 0 1.19209e-05 12.7357 29.7758 20.9049 -24.173 0 -1.19209e-05 -4.15113e-05 8.17527e-06 97.4214 -24.7997 0 -1.19209e-05 5.6298 -0.154831 15.6886 -0.0062 0.0497 0.0339 45 0 0 0 0.0215 0 0 -45 0 0 0.022 0 0 -45 0 0 0.017 0 0 0 0 0.0068 0.0873 0.0207 45 0 0 0 0.0267 0 80 0 0 0 0.0213 0 90 0 0 0 0.018 0 0 0 0 0.0067 0.0922 0.0055 45 0 0 0 0.0266 0 80 0 0 0 0.0228 0 90 0 0 0 0.015 0 0 0 0 0.0067 0.0925 -0.0113 45 0 0 0 0.0247 0 80 0 0 0 0.0221 0 90 0 0 0 0.018 0 0 0 0 0.0066 0.0935 -0.0272 45 0 0 0 0.0163 0 80 0 0 0 0.0171 0 90 0 0 0 0.018 0 0 0 0 -1.78814e-05 38.2689 0 18.0256 4.21876 -1.37133 -5.96046e-06 16.2069 0 1.04587e-05 -1.10991e-05 8.53773e-07 
21.002 28.6907 -197.392 6.92741 3.21476 9.03511 8.14224 -7.88519 2.38874 -0.424403 1.20937 -5.44738 -1.49012e-05 -49.6258 0 -0.44926 28.6875 4.86619e-07 -2.98023e-06 -47.2229 -1.19209e-05 6.89041 -23.6954 5.87936 -8.34233 -7.70648 0.758278 -8.6344 -10.9772 -7.47466 -1.49012e-06 -45.7985 1.19209e-05 8.01488 15.6284 2.21638e-07 1.49012e-06 -40.4982 -1.19209e-05 1.62565 2.86697 0.933629 5.96046e-06 6.09149 -6.0915 -0.675092 -2.00208 -0.150702 0 38.2689 -3.57628e-05 -29.1813 1.43007e-05 -3.92592 21.8977 -1.19209e-05 2.38419e-05 20.6018 -44.0057 -12.0985 21.903 4.76837e-05 1.19209e-05 1.61195e-05 1.70755e-06 -26.524 21.9837 -3.57628e-05 0 -21.5931 0.73709 -0.732241 0.0062 0.0497 0.0339 -45 0 0 0 0.0215 0 0 -45 0 0 0.022 0 0 -45 0 0 0.017 0 0 0 0 -0.0068 0.0873 0.0207 -45 0 0 0 0.0267 0 -80 0 0 0 0.0213 0 -90 0 0 0 0.018 0 0 0 0 -0.0067 0.0922 0.0055 -45 0 0 0 0.0266 0 -80 0 0 0 0.0228 0 -90 0 0 0 0.015 0 0 0 0 -0.0067 0.0925 -0.0113 -45 0 0 0 0.0247 0 -80 0 0 0 0.0221 0 -90 0 0 0 0.018 0 0 0 0 -0.0066 0.0935 -0.0272 -45 0 0 0 0.0163 0 -80 0 0 0 0.0171 0 -90 0 0 0 0.018 0 0 0 0 0 38.2689 -3.57628e-05 32.0948 -2.98821e-06 4.14358 -20.7492 -2.08616e-05 1.19209e-05 11.9098 29.2226 21.0145 -24.2582 -5.96046e-06 0 -1.72467e-05 -9.84242e-07 96.5325 -24.756 -5.96046e-06 -1.19209e-05 6.25422 -0.106246 15.4999 -0.0062 0.0497 0.0339 45 0 0 0 0.0215 0 0 -45 0 0 0.022 0 0 -45 0 0 0.017 0 0 0 0 0.0068 0.0873 0.0207 45 0 0 0 0.0267 0 80 0 0 0 0.0213 0 90 0 0 0 0.018 0 0 0 0 0.0067 0.0922 0.0055 45 0 0 0 0.0266 0 80 0 0 0 0.0228 0 90 0 0 0 0.015 0 0 0 0 0.0067 0.0925 -0.0113 45 0 0 0 0.0247 0 80 0 0 0 0.0221 0 90 0 0 0 0.018 0 0 0 0 0.0066 0.0935 -0.0272 45 0 0 0 0.0163 0 80 0 0 0 0.0171 0 90 0 0 0 0.018 0 0 0 0 0 38.2689 -3.57628e-05 15.0878 6.35263 -1.70861 -1.19209e-05 16.0802 -4.76837e-05 9.28479e-06 -1.02453e-05 2.56132e-06 
21.002 28.6907 -197.392 6.92741 3.21476 9.03511 8.14224 -7.88519 2.38874 -0.424403 1.20937 -5.44738 -1.49012e-05 -49.6258 0 -0.44926 28.6875 4.86619e-07 -2.98023e-06 -47.2229 -1.19209e-05 6.89041 -23.6954 5.87936 -8.34233 -7.70648 0.758278 -8.6344 -10.9772 -7.47466 -1.49012e-06 -45.7985 1.19209e-05 8.01488 15.6284 2.21638e-07 1.49012e-06 -40.4982 -1.19209e-05 1.62565 2.86697 0.933629 5.96046e-06 6.09149 -6.0915 -0.675092 -2.00208 -0.150702 0 38.2689 -3.57628e-05 -29.1813 1.43007e-05 -3.92592 21.8977 -1.19209e-05 2.38419e-05 20.6018 -44.0057 -12.0985 21.903 4.76837e-05 1.19209e-05 1.61195e-05 1.70755e-06 -26.524 21.9837 -3.57628e-05 0 -21.5931 0.73709 -0.732241 0.0062 0.0497 0.0339 -45 0 0 0 0.0215 0 0 -45 0 0 0.022 0 0 -45 0 0 0.017 0 0 0 0 -0.0068 0.0873 0.0207 -45 0 0 0 0.0267 0 -80 0 0 0 0.0213 0 -90 0 0 0 0.018 0 0 0 0 -0.0067 0.0922 0.0055 -45 0 0 0 0.0266 0 -80 0 0 0 0.0228 0 -90 0 0 0 0.015 0 0 0 0 -0.0067 0.0925 -0.0113 -45 0 0 0 0.0247 0 -80 0 0 0 0.0221 0 -90 0 0 0 0.018 0 0 0 0 -0.0066 0.0935 -0.0272 -45 0 0 0 0.0163 0 -80 0 0 0 0.0171 0 -90 0 0 0 0.018 0 0 0 0 0 38.2689 -3.57628e-05 32.0948 -2.98821e-06 4.14358 -20.7492 -2.08616e-05 1.19209e-05 11.9098 29.2226 21.0145 -24.2582 -5.96046e-06 0 -1.72467e-05 -9.84242e-07 96.5325 -24.756 -5.96046e-06 -1.19209e-05 6.25422 -0.106246 15.4999 -0.0062 0.0497 0.0339 45 0 0 0 0.0215 0 0 -45 0 0 0.022 0 0 -45 0 0 0.017 0 0 0 0 0.0068 0.0873 0.0207 45 0 0 0 0.0267 0 80 0 0 0 0.0213 0 90 0 0 0 0.018 0 0 0 0 0.0067 0.0922 0.0055 45 0 0 0 0.0266 0 80 0 0 0 0.0228 0 90 0 0 0 0.015 0 0 0 0 0.0067 0.0925 -0.0113 45 0 0 0 0.0247 0 80 0 0 0 0.0221 0 90 0 0 0 0.018 0 0 0 0 0.0066 0.0935 -0.0272 45 0 0 0 0.0163 0 80 0 0 0 0.0171 0 90 0 0 0 0.018 0 0 0 0 0 38.2689 -3.57628e-05 15.0878 6.35263 -1.70861 -1.19209e-05 16.0802 -4.76837e-05 9.28479e-06 -1.02453e-05 2.56132e-06 
21.3416 27.0045 -201.658 7.27833 3.51807 7.71593 7.94713 -8.06382 2.5098 0.370756 3.83147 -6.76823 -5.96046e-06 -48.8525 -2.38419e-05 -2.63368 28.7136 6.08425e-07 2.98023e-06 -47.7837 1.19209e-05 10.5416 -38.4036 10.2944 -8.09242 -7.46307 0.555229 -9.09974 -17.1784 -9.25499 0 -45.6015 -1.19209e-05 5.90021 21.6965 1.20602e-06 0 -40.5427 1.19209e-05 1.57515 3.16322 0.87162 5.96046e-06 6.05206 -6.0521 -0.450346 -1.63017 -0.840071 0 38.2689 4.76837e-05 -31.4517 1.25932e-05 -4.0952 21.9312 5.96046e-06 -2.38419e-05 19.6709 -47.8004 -15.5232 22.6782 3.57628e-05 4.17233e-05 -1.05189e-05 -1.70755e-06 -27.5379 22.0887 0 -3.57628e-05 -12.873 0.892398 -8.20603 0.0062 0.0497 0.0339 -45 0 0 0 0.0215 0 0 -45 0 0 0.022 0 0 -45 0 0 0.017 0 0 0 0 -0.0068 0.0873 0.0207 -45 0 0 0 0.0267 0 -80 0 0 0 0.0213 0 -90 0 0 0 0.018 0 0 0 0 -0.0067 0.0922 0.0055 -45 0 0 0 0.0266 0 -80 0 0 0 0.0228 0 -90 0 0 0 0.015 0 0 0 0 -0.0067 0.0925 -0.0113 -45 0 0 0 0.0247 0 -80 0 0 0 0.0221 0 -90 0 0 0 0.018 0 0 0 0 -0.0066 0.0935 -0.0272 -45 0 0 0 0.0163 0 -80 0 0 0 0.0171 0 -90 0 0 0 0.018 0 0 0 0 0 38.2689 4.76837e-05 32.7182 -3.4151e-06 4.34307 -20.6817 2.98023e-06 -3.57628e-05 10.886 28.2332 22.6277 -24.3515 -1.19209e-05 -1.19209e-05 0.000181042 6.60187e-06 93.209 -24.5021 1.19209e-05 -3.57628e-05 7.59702 -0.0390162 15.422 -0.0062 0.0497 0.0339 45 0 0 0 0.0215 0 0 -45 0 0 0.022 0 0 -45 0 0 0.017 0 0 0 0 0.0068 0.0873 0.0207 45 0 0 0 0.0267 0 80 0 0 0 0.0213 0 90 0 0 0 0.018 0 0 0 0 0.0067 0.0922 0.0055 45 0 0 0 0.0266 0 80 0 0 0 0.0228 0 90 0 0 0 0.015 0 0 0 0 0.0067 0.0925 -0.0113 45 0 0 0 0.0247 0 80 0 0 0 0.0221 0 90 0 0 0 0.018 0 0 0 0 0.0066 0.0935 -0.0272 45 0 0 0 0.0163 0 80 0 0 0 0.0171 0 90 0 0 0 0.018 0 0 0 0 0 38.2689 4.76837e-05 8.75251 7.46027 -1.14518 -1.19209e-05 15.844 -2.38419e-05 1.0352e-05 -8.53774e-06 -8.53774e-07 
